<?xml version="1.0" encoding="UTF-8" standalone="no"?>
<!-- Created with Inkscape (http://www.inkscape.org/) -->

<svg
   xmlns:dc="http://purl.org/dc/elements/1.1/"
   xmlns:cc="http://creativecommons.org/ns#"
   xmlns:rdf="http://www.w3.org/1999/02/22-rdf-syntax-ns#"
   xmlns:svg="http://www.w3.org/2000/svg"
   xmlns="http://www.w3.org/2000/svg"
   xmlns:sodipodi="http://sodipodi.sourceforge.net/DTD/sodipodi-0.dtd"
   xmlns:inkscape="http://www.inkscape.org/namespaces/inkscape"
   width="744.09448819"
   height="1052.3622047"
   id="svg2"
   version="1.1"
   inkscape:version="0.47 r22583"
   sodipodi:docname="New document 1">
  <defs
     id="defs4">
    <inkscape:perspective
       sodipodi:type="inkscape:persp3d"
       inkscape:vp_x="0 : 526.18109 : 1"
       inkscape:vp_y="0 : 1000 : 0"
       inkscape:vp_z="744.09448 : 526.18109 : 1"
       inkscape:persp3d-origin="372.04724 : 350.78739 : 1"
       id="perspective10" />
  </defs>
  <sodipodi:namedview
     id="base"
     pagecolor="#ffffff"
     bordercolor="#666666"
     borderopacity="1.0"
     inkscape:pageopacity="0.0"
     inkscape:pageshadow="2"
     inkscape:zoom="0.98994949"
     inkscape:cx="375"
     inkscape:cy="520"
     inkscape:document-units="px"
     inkscape:current-layer="layer1"
     showgrid="false"
     inkscape:window-width="1440"
     inkscape:window-height="825"
     inkscape:window-x="0"
     inkscape:window-y="24"
     inkscape:window-maximized="1" />
  <metadata
     id="metadata7">
    <rdf:RDF>
      <cc:Work
         rdf:about="">
        <dc:format>image/svg+xml</dc:format>
        <dc:type
           rdf:resource="http://purl.org/dc/dcmitype/StillImage" />
        <dc:title></dc:title>
      </cc:Work>
    </rdf:RDF>
  </metadata>
  <g
     inkscape:label="Layer 1"
     inkscape:groupmode="layer"
     id="layer1">
    <text
       xml:space="preserve"
       style="font-size:14px;font-style:normal;font-weight:normal;fill:#000000;fill-opacity:1;stroke:none;font-family:Bitstream Vera Sans"
       x="103.03556"
       y="601.83417"
       id="text2816"
       sodipodi:linespacing="125%"><tspan
         sodipodi:role="line"
         id="tspan2818"
         x="103.03556"
         y="601.83417"
         style="-inkscape-font-specification:Monospace;font-family:Monospace;font-weight:normal;font-style:normal;font-stretch:normal;font-variant:normal;font-size:36px;text-anchor:start;text-align:start;writing-mode:lr;line-height:125%">Grue</tspan></text>
    <path
       style="fill:none;stroke:#000000;stroke-width:1.153;stroke-miterlimit:4;stroke-opacity:1;stroke-dasharray:none;stroke-dashoffset:0"
       id="path2822"
       d="m 135.86552,615.47121 c -0.86842,3.09912 -0.47872,3.6189 -2.64698,5.632 -0.32391,0.30073 -0.72798,0.58396 -1.16776,0.62813 -1.37763,0.13835 -2.29598,-1.22866 -3.33234,-0.8962 -1.4075,0.55651 -0.57641,-0.0238 -1.30525,1.46368 -0.20401,0.41634 -0.50821,0.77863 -0.70999,1.19607 -0.25315,0.5237 -0.21926,1.32854 -0.96795,1.5386 -0.54332,0.15245 -1.12848,0.0168 -1.69272,0.0252 -3.60718,-0.85959 -7.30402,-0.63394 -10.96988,-0.48569 -0.57117,0.11012 -2.31715,1.72257 -2.8793,0.65532 -0.46009,-0.87348 0.35837,-4.26574 0.48828,-5.28326 0.12129,-2.29921 -0.11251,-4.58589 -0.10016,-6.89168 0.0245,-1.678 0.013,-0.88197 0.0344,-2.38807 0,0 1.01005,0.0143 1.01005,0.0143 l 0,0 c -0.0213,1.50342 -0.01,0.71035 -0.0343,2.37922 -0.0129,2.34648 0.23241,4.67402 0.092,7.01429 -0.0856,0.6691 -0.37914,3.13145 -0.54975,3.7934 -0.15667,0.60786 -0.80389,0.88835 -0.5122,0.78337 0.82914,-0.29842 1.4935,-0.9812 2.41016,-1.08625 3.69983,-0.14959 7.43563,-0.37975 11.07592,0.48698 1.52479,0.30609 1.08433,0.26661 1.72718,-1.07205 0.19145,-0.39868 0.45125,-0.76077 0.67896,-1.1399 1.16629,-1.94187 0.38593,-1.39164 2.10402,-2.00872 0.3025,-0.004 0.61624,-0.0942 0.90748,-0.0123 0.74021,0.20795 1.30487,0.99745 2.07363,1.01015 0.31137,0.005 0.61703,-0.17829 0.85255,-0.38202 1.98405,-1.71628 1.576,-2.13646 2.40378,-4.9746 0,0 1.01016,0 1.01016,0 z" />
    <path
       style="fill:none;stroke:#000000;stroke-width:1.153;stroke-miterlimit:4;stroke-opacity:1;stroke-dasharray:none;stroke-dashoffset:0"
       id="path2824"
       d="m 175.01088,573.98841 c -0.11895,-0.0743 -6.746,-4.2284 -7.33773,-4.55407 -0.80186,-0.44132 -1.69092,-0.35736 -2.08108,-1.21443 -0.29917,-0.65719 -0.3862,-1.62219 -0.48968,-2.29752 -1.15078,-1.44606 0.33136,0.28909 -1.33961,-1.17826 -0.29241,-0.25677 -0.45546,-0.65472 -0.78134,-0.86741 -0.29385,-0.19179 -0.68957,-0.1552 -1.00878,-0.30094 -1.18029,-0.7338 -0.61723,-0.45314 -1.66169,-0.89506 -0.18849,-0.25555 -0.31048,-0.57741 -0.56548,-0.76666 -0.98276,-0.72937 -5.13769,-0.0174 -6.32661,0.0594 -2.88318,0.0442 -5.76436,-0.0617 -8.64822,-0.0527 -1.57655,0.009 -1.19884,-0.36421 -1.85134,0.41506 -0.11747,0.14029 -0.1776,0.34854 -0.34158,0.42974 -0.42975,0.21279 -0.93192,0.23907 -1.37577,0.42062 -0.56967,0.23303 -1.07841,0.59647 -1.63975,0.84889 -0.0597,0.14669 -0.0538,0.34316 -0.17906,0.44006 -0.35955,0.27815 -0.82422,0.38925 -1.20796,0.63295 -1.01301,0.64332 -0.4274,0.54843 -1.41281,1.41882 -0.30612,0.27039 -0.75301,0.37444 -1.01287,0.68955 -0.21007,0.25474 -0.21792,0.62338 -0.32688,0.93507 -2.90505,2.32222 -2.13545,2.07152 -1.52245,5.2864 0.0259,0.54145 0.0518,1.0829 0.0777,1.62436 0,0 -1.00914,0.0451 -1.00914,0.0451 l 0,0 c -0.0203,-0.4937 -0.0407,-0.98739 -0.061,-1.48109 -0.54628,-2.89222 -1.35505,-4.01574 1.5914,-5.8841 0.23149,-0.4564 0.37499,-0.96943 0.69449,-1.36918 0.19881,-0.24874 0.56978,-0.29848 0.8076,-0.51023 1.03263,-0.9194 0.5921,-1.00927 1.76114,-1.67664 0.23379,-0.13346 0.55449,-0.0869 0.76744,-0.25158 0.27146,-0.20996 0.41351,-0.54782 0.62026,-0.82173 0.62205,-0.27607 1.18355,-0.68964 1.82695,-0.91143 0.26099,-0.09 0.57743,0.042 0.82414,-0.0819 0.22934,-0.11517 0.30289,-0.42172 0.50173,-0.58398 1.08068,-0.8819 0.98866,-0.61629 2.46461,-0.62494 2.86322,-0.009 5.72375,0.0941 8.58629,0.0548 1.5842,-0.10218 6.62751,-1.11469 7.35855,0.78828 1.1165,0.49261 0.58117,0.202 1.60552,0.87271 0.45892,0.2276 0.98997,0.30757 1.4219,0.58294 0.26287,0.16759 0.37534,0.50305 0.60763,0.71096 1.74306,1.56017 0.57718,-0.0116 1.75397,1.8522 0.0585,0.39962 0.0973,0.80263 0.17556,1.19886 0.0534,0.27018 0.18756,0.52311 0.21865,0.79676 0.005,0.0422 -0.1649,-0.004 -0.12653,0.0142 0.602,0.2842 1.25012,0.47104 1.83352,0.7917 0.597,0.32813 7.15886,4.44315 7.30948,4.53731 0,0 -0.50117,0.87706 -0.50117,0.87706 z" />
    <path
       style="fill:none;stroke:#000000;stroke-width:1.153;stroke-miterlimit:4;stroke-opacity:1;stroke-dasharray:none;stroke-dashoffset:0"
       id="path2826"
       d="m 114.45335,564.49934 c 1.69341,-1.45056 3.96593,-1.97808 5.76205,-3.26027 0.45166,-0.32242 0.42452,-1.05818 0.81691,-1.45057 0.63931,-0.6393 1.45619,-1.07889 2.11516,-1.69789 0.66605,-0.28322 2.44243,-0.87199 3.07805,-1.38734 0.22164,-0.1797 -0.30745,-2.00722 -0.31006,-2.02038 -0.37747,-2.16435 -0.15112,-3.8874 1.95816,-5.09249 0.60822,-0.3475 1.34901,-0.37823 2.02054,-0.57759 1.58652,-0.47099 0.49148,-0.27711 2.29459,-0.44761 0.40176,0.0231 0.80778,0.13196 1.20528,0.0692 0.12447,-0.0197 0.12548,-0.23331 0.23449,-0.29652 0.34288,-0.19881 0.73967,-0.28922 1.09125,-0.47218 0.40179,-0.20909 0.76044,-0.49534 1.16382,-0.70135 1.4634,-0.74738 1.30933,-0.55569 3.07251,-0.74782 0.91195,-1.00128 1.35168,-1.83148 2.82212,-2.08575 1.8992,-0.32841 1.1015,0.28462 2.61826,-0.50524 0.45945,-0.0701 0.9349,-0.0712 1.37835,-0.21032 2.80812,-0.88121 -1.45698,-0.0358 1.57245,-0.8956 2.20614,-0.62611 0.86742,0.069 3.08453,-0.19689 0.39177,-0.047 0.75259,-0.23745 1.12888,-0.35618 0.70485,-0.13586 1.40971,-0.27172 2.11456,-0.40759 0.82918,-0.0717 1.6665,-0.079 2.48755,-0.21524 1.08302,0.0235 1.96034,-0.70575 2.97943,-0.90033 1.44522,-0.27595 2.6294,-0.16206 4.10148,-0.12882 2.85364,0.34419 5.7161,0.24921 8.58104,0.19892 1.13655,-0.10807 2.87507,-0.0256 3.59347,1.12844 0.12924,0.20761 0.44551,1.76765 0.63135,2.00611 0.2986,0.38316 0.75498,0.61146 1.13248,0.91719 0.48707,0.1787 1.02857,0.24976 1.46121,0.5361 0.46542,0.30804 0.73703,0.84445 1.16535,1.20227 0.66657,0.55686 1.42645,0.64551 1.86226,1.47504 0.26269,1.26302 0.0236,0.81671 0.4427,1.45297 0.0795,0.21025 0.19035,0.41119 0.23842,0.63076 0.0685,0.31315 -0.006,0.65613 0.10884,0.95553 0.0524,0.137 0.23724,0.17261 0.35587,0.25891 0.15868,0.22719 0.388,0.41882 0.47605,0.68158 1.04194,3.10911 -0.6886,0.14151 1.20137,2.95066 0.0904,0.0524 1.96032,1.1017 2.14879,1.32293 0.22148,0.25996 0.17696,0.68738 0.40609,0.94062 0.11229,0.1241 0.35042,-0.0186 0.49857,0.0592 0.92439,0.48566 0.81734,0.74203 1.20239,1.69826 -0.009,0.59111 0.011,1.18332 -0.0261,1.77332 -0.0362,0.57483 -0.22179,1.14174 -0.19364,1.71703 0.0262,0.53625 0.4321,0.66027 0.667,1.04479 0.45117,0.73854 0.34415,0.83656 0.42311,1.74111 -0.24709,2.48277 -0.3023,4.97279 -0.22294,7.4644 0.0261,1.34855 0.0161,0.57673 0.0198,2.31557 0,0 -1.01015,0.002 -1.01015,0.002 l 0,0 c -0.003,-1.71723 0.006,-0.95541 -0.0193,-2.28554 -0.0789,-2.48271 -0.0375,-4.96663 0.22404,-7.43954 -0.0134,-1.36318 -0.99973,-1.67248 -1.08524,-2.95706 -0.0364,-0.5473 0.14077,-1.08829 0.18766,-1.63478 0.0408,-0.47518 0.0501,-0.95252 0.0752,-1.42878 -0.22359,-1.17611 -0.90479,-0.94063 -1.70694,-1.77653 -0.0907,-0.0946 0.0887,-0.2958 9.9e-4,-0.39312 -0.65452,-0.72592 -1.90538,-0.76107 -2.44227,-1.6228 -2.52381,-4.17282 -0.28218,0.1028 -1.17894,-2.91686 -0.16509,-0.5559 -0.77914,-0.8854 -1.00691,-1.4187 -0.0921,-0.21566 -0.006,-0.47141 -0.0507,-0.70166 -0.034,-0.17603 -0.12156,-0.33731 -0.18234,-0.50596 -0.10571,-0.22254 -0.21142,-0.44507 -0.31713,-0.66761 0.0113,-0.18815 0.11337,-0.39352 0.0339,-0.56445 -0.30312,-0.65213 -1.46412,-1.13444 -1.87756,-1.49149 -0.30923,-0.26705 -0.44313,-0.7179 -0.78536,-0.94109 -0.53267,-0.34738 -1.17711,-0.48171 -1.76566,-0.72257 -0.47327,-0.45134 -1.03488,-0.82533 -1.41982,-1.35403 -0.2231,-0.30642 -0.23537,-0.72062 -0.35305,-1.08093 0.0116,-0.15537 0.10878,-0.32897 0.0349,-0.46613 -0.55146,-1.02334 -2.02453,-0.99707 -2.93005,-0.89528 -2.87868,0.0505 -5.75567,0.14591 -8.62298,-0.19906 -1.0848,-0.0276 -2.63288,-0.13983 -3.74851,0.0741 -1.09989,0.21093 -2.0473,1.00002 -3.22221,0.95166 -0.78638,0.13136 -1.58893,0.1339 -2.38339,0.20085 -0.67356,0.1283 -1.34711,0.25659 -2.02067,0.38489 -0.48009,0.13219 -0.94616,0.33487 -1.44029,0.39656 -1.45711,0.18191 -1.21256,-0.29814 -2.58386,0.0795 -0.69486,0.19137 -1.22752,0.78696 -1.91455,1.00477 -0.33492,0.10618 -0.69903,0.0717 -1.04854,0.10755 -0.47753,0.24181 -1.04648,0.57041 -1.58362,0.63268 -0.72876,0.0845 -1.47178,-0.28492 -2.16845,0.15785 -0.32479,0.20642 -0.46975,0.61433 -0.7517,0.87625 -0.40545,0.37665 -0.86755,0.68729 -1.30132,1.03094 -2.3265,0.1858 -2.82142,0.78238 -4.84645,1.74465 -0.2997,0.14241 -0.54956,0.40781 -0.87431,0.47589 -0.34584,0.0725 -0.70513,-0.0473 -1.0577,-0.0709 -1.7773,0.12897 -0.325,-0.0577 -2.12482,0.41851 -3.0603,0.80977 -3.69069,1.12769 -3.24232,4.49853 0.20381,1.05399 0.6721,2.29219 -0.27849,3.14086 -0.17989,0.16061 -0.45185,0.172 -0.66531,0.28422 -1.70417,0.89592 -0.22854,0.36315 -2.12815,0.91697 -0.3158,0.29029 -0.6055,0.61184 -0.9474,0.87088 -0.3032,0.22972 -0.70908,0.31898 -0.97806,0.58795 -0.82875,0.82875 -0.18869,1.08243 -1.20339,1.83243 -1.80229,1.33214 -4.1729,1.78026 -5.85471,3.30572 0,0 -0.39792,-0.92848 -0.39792,-0.92848 z" />
  </g>
</svg>
